<?xml version="1.0" standalone="no"?>
<!DOCTYPE svg PUBLIC "-//W3C//DTD SVG 20010904//EN" "http://www.w3.org/TR/2001/REC-SVG-20010904/DTD/svg10.dtd">
<svg version="1.0" xmlns="http://www.w3.org/2000/svg"
 width="1024.000000pt" height="1024.000000pt" viewBox="0 0 1024.000000 1024.000000"
 preserveAspectRatio="xMidYMid meet">

<g transform="translate(0.000000,1024.000000) scale(0.100000,-0.100000)"
 stroke="none">
<path d="M4321 8632 c-38 -37 -41 -70 -38 -375 1 -166 -2 -257 -8 -257 -5 0
-50 7 -100 15 -474 76 -814 120 -827 107 -6 -6 14 -43 47 -91 245 -360 272
-759 78 -1146 -43 -84 -124 -208 -165 -252 -33 -34 -30 -59 6 -49 30 9 354 72
461 90 139 23 352 46 435 46 l75 0 -2 -166 c-1 -92 -4 -168 -6 -170 -8 -9
-1104 75 -1252 96 -33 4 -64 4 -69 0 -4 -4 13 -43 39 -86 85 -139 132 -263
161 -419 13 -70 15 -128 11 -260 -4 -148 -8 -185 -35 -285 -52 -196 -163 -431
-287 -606 -59 -82 -50 -94 46 -61 394 135 966 262 1319 293 l75 6 -1 -313 -2
-314 67 -70 c36 -38 81 -92 99 -119 l32 -49 0 437 0 438 108 -7 c387 -23 748
-155 976 -356 37 -33 52 -40 64 -33 36 23 129 288 158 449 24 134 24 394 1
521 -42 231 -150 465 -283 612 l-39 44 -220 14 c-474 29 -701 45 -732 50 l-33
5 0 176 0 175 88 -7 c268 -22 538 -102 723 -216 39 -24 82 -51 95 -59 23 -14
26 -13 40 5 22 29 60 158 78 264 18 109 21 323 5 437 -34 248 -147 483 -325
677 -43 47 -57 56 -95 61 -121 15 -567 78 -586 83 l-23 5 0 305 c0 252 -3 309
-15 333 -30 58 -98 68 -144 22z"/>
<path d="M5826 6892 c-3 -5 22 -75 55 -157 179 -443 270 -949 240 -1330 -19
-233 -78 -472 -166 -670 -46 -104 -34 -108 106 -29 255 143 538 242 799 279
139 19 418 19 562 0 146 -21 349 -70 410 -101 93 -47 71 -7 -140 262 -500 636
-1258 1377 -1722 1685 -99 65 -132 80 -144 61z"/>
<path d="M8175 4786 c-133 -44 -1379 -407 -1545 -450 -193 -51 -503 -117 -877
-186 -512 -96 -784 -132 -1133 -149 -145 -7 -167 -6 -178 8 -7 9 -36 52 -64
96 -57 91 -175 212 -263 272 -329 222 -748 222 -1058 -1 -118 -84 -237 -218
-294 -329 l-24 -48 -117 6 c-64 3 -184 10 -265 16 -206 13 -187 16 -187 -31 0
-103 69 -340 144 -495 87 -179 233 -373 399 -532 48 -46 93 -83 102 -83 20 0
229 45 339 73 l88 23 -41 29 -42 29 122 122 122 122 41 -19 41 -18 3 -126 3
-125 70 4 71 5 -1 123 -2 123 43 18 42 17 123 -122 c68 -68 123 -125 123 -128
0 -3 -15 -15 -33 -27 -17 -13 -27 -23 -22 -23 22 0 255 -40 311 -54 32 -7 147
-37 255 -65 239 -62 381 -81 590 -81 263 0 412 23 769 120 255 69 374 84 625
77 176 -5 391 -29 468 -53 11 -3 17 0 17 9 0 26 88 290 131 393 55 133 157
335 231 458 183 303 409 532 803 810 l160 112 0 45 c0 40 -2 44 -25 46 -14 1
-43 -4 -65 -11z m-4685 -724 l0 -178 -41 -18 -41 -19 -122 122 -121 122 30 25
c69 57 216 123 273 124 22 0 22 0 22 -178z m254 153 c72 -25 210 -110 204
-125 -2 -5 -56 -63 -121 -128 l-117 -119 -41 20 -40 20 2 178 c2 207 -6 196
113 154z m-462 -522 l-17 -53 -167 0 c-128 0 -168 3 -168 13 1 60 54 206 104
286 l28 44 119 -119 119 -119 -18 -52z m822 214 c35 -63 69 -160 81 -229 l6
-38 -176 0 c-151 0 -175 2 -175 15 0 9 -7 30 -16 47 l-16 31 123 123 c67 68
126 121 131 118 4 -3 23 -33 42 -67z m-494 -232 c81 -42 79 -186 -2 -231 -77
-43 -168 18 -168 111 0 103 86 163 170 120z m-332 -237 l22 -53 -117 -117
c-64 -64 -120 -115 -125 -112 -4 3 -23 33 -42 67 -38 67 -70 158 -81 225 l-7
42 164 0 164 0 22 -52z m912 39 c0 -64 -71 -249 -116 -305 l-19 -23 -119 120
-118 119 17 51 17 51 169 0 c135 0 169 -3 169 -13z"/>
<path d="M3365 2799 c-38 -5 -124 -21 -190 -35 -334 -70 -375 -76 -535 -76
-132 0 -172 4 -270 26 -63 14 -125 26 -137 26 -35 0 -63 -34 -63 -77 0 -54 64
-111 169 -152 226 -87 389 -90 744 -10 447 99 711 91 1147 -37 404 -118 553
-144 823 -144 260 0 396 21 712 110 303 85 393 101 615 107 223 6 316 -4 579
-62 187 -41 337 -58 431 -49 160 15 328 73 384 133 47 50 38 119 -19 141 -12
5 -61 0 -120 -12 -72 -15 -141 -20 -245 -21 -156 0 -216 8 -410 53 -236 55
-309 64 -540 64 -234 1 -312 -9 -524 -65 -502 -133 -562 -143 -861 -143 -278
0 -422 23 -745 119 -172 51 -312 83 -443 100 -128 16 -387 18 -502 4z"/>
<path d="M3540 2310 c-154 -12 -398 -66 -456 -101 -93 -56 -50 -189 61 -189
24 0 95 11 158 25 337 73 548 55 947 -80 429 -144 505 -160 775 -159 280 0
324 9 826 167 352 111 576 124 891 51 129 -29 182 -30 225 -4 36 21 57 78 43
113 -20 52 -70 76 -241 117 -211 50 -392 61 -580 35 -137 -18 -238 -42 -482
-115 -292 -88 -408 -110 -614 -117 -267 -9 -390 13 -763 132 -346 111 -553
144 -790 125z"/>
</g>
</svg>
